<svg width="28" height="28" viewBox="0 0 28 28" fill="none" xmlns="http://www.w3.org/2000/svg">
<g clip-path="url(#clip0_2093_4372)">
<path d="M25.667 13.9993H26.8337M14.0003 2.33268V1.16602M14.0003 26.8327V25.666M23.3337 23.3327L22.167 22.166M23.3337 4.66602L22.167 5.83268M4.66699 23.3327L5.83366 22.166M4.66699 4.66602L5.83366 5.83268M1.16699 13.9993H2.33366M14.0003 20.9993C15.8568 20.9993 17.6373 20.2619 18.9501 18.9491C20.2628 17.6363 21.0003 15.8559 21.0003 13.9993C21.0003 12.1428 20.2628 10.3624 18.9501 9.0496C17.6373 7.73685 15.8568 6.99935 14.0003 6.99935C12.1438 6.99935 10.3633 7.73685 9.05058 9.0496C7.73782 10.3624 7.00033 12.1428 7.00033 13.9993C7.00033 15.8559 7.73782 17.6363 9.05058 18.9491C10.3633 20.2619 12.1438 20.9993 14.0003 20.9993Z" stroke="#005A4F" stroke-width="1.5" stroke-linecap="round" stroke-linejoin="round"/>
</g>
<defs>
<clipPath id="clip0_2093_4372">
<rect width="28" height="28" fill="white"/>
</clipPath>
</defs>
</svg>
