<svg width="28" height="28" viewBox="0 0 28 28" fill="none" xmlns="http://www.w3.org/2000/svg">
<path fill-rule="evenodd" clip-rule="evenodd" d="M18.7752 6.30078H9.22438C8.82811 6.30084 8.43637 6.38501 8.07506 6.54773C7.71374 6.71044 7.39108 6.948 7.1284 7.24469C6.86572 7.54138 6.66901 7.89044 6.55126 8.26881C6.43352 8.64718 6.39743 9.04623 6.44538 9.43958L8.15338 23.4396C8.23615 24.1187 8.56467 24.7439 9.07691 25.1974C9.58916 25.6508 10.2497 25.901 10.9338 25.9008H17.0728C17.7566 25.9007 18.4168 25.6503 18.9288 25.1969C19.4407 24.7435 19.769 24.1184 19.8518 23.4396L21.5556 9.43958C21.5696 9.32758 21.5766 9.21465 21.5766 9.10078C21.5766 8.35818 21.2816 7.64598 20.7565 7.12088C20.2314 6.59578 19.5178 6.30078 18.7752 6.30078ZM9.05498 7.71058C9.11166 7.70384 9.1687 7.70056 9.22578 7.70078H18.7766C18.9746 7.70074 19.1704 7.74272 19.3511 7.82395C19.5317 7.90518 19.6931 8.02381 19.8245 8.17201C19.9558 8.32021 20.0543 8.4946 20.1133 8.68366C20.1723 8.87272 20.1905 9.07215 20.1668 9.26878L18.4616 23.2688C18.4205 23.6083 18.2566 23.9211 18.0008 24.1481C17.7449 24.3751 17.4148 24.5005 17.0728 24.5008H10.9324C10.5906 24.5006 10.2606 24.3753 10.0048 24.1486C9.74899 23.9219 9.58494 23.6095 9.54358 23.2702L7.83558 9.27018C7.7905 8.90167 7.89364 8.53034 8.12232 8.23787C8.35099 7.94539 8.68647 7.75573 9.05498 7.71058Z" fill="#005A4F"/>
<path d="M12.5685 20.5063C12.5415 20.5942 12.4975 20.6759 12.4389 20.7467C12.3803 20.8176 12.3083 20.8762 12.227 20.9192C12.0629 21.0061 11.871 21.0243 11.6935 20.9697C11.6057 20.9427 11.524 20.8986 11.4531 20.84C11.3823 20.7814 11.3237 20.7094 11.2806 20.6282C11.1937 20.4641 11.1756 20.2722 11.2302 20.0947L16.8302 1.89472C16.8572 1.80684 16.9012 1.72514 16.9598 1.65429C17.0184 1.58345 17.0904 1.52483 17.1717 1.4818C17.2529 1.43877 17.3419 1.41217 17.4334 1.4035C17.5249 1.39484 17.6173 1.40429 17.7052 1.43132C17.793 1.45835 17.8747 1.50242 17.9456 1.56102C18.0164 1.61962 18.075 1.6916 18.1181 1.77285C18.1611 1.8541 18.1877 1.94303 18.1964 2.03456C18.205 2.1261 18.1956 2.21844 18.1685 2.30632L12.5685 20.5063Z" fill="#005A4F"/>
<path d="M7.7 14.0004C7.51435 14.0004 7.3363 13.9266 7.20503 13.7954C7.07375 13.6641 7 13.486 7 13.3004C7 13.1147 7.07375 12.9367 7.20503 12.8054C7.3363 12.6741 7.51435 12.6004 7.7 12.6004H20.3C20.4857 12.6004 20.6637 12.6741 20.795 12.8054C20.9263 12.9367 21 13.1147 21 13.3004C21 13.486 20.9263 13.6641 20.795 13.7954C20.6637 13.9266 20.4857 14.0004 20.3 14.0004H7.7ZM17.3306 2.77938C17.1543 2.73102 17.0038 2.61559 16.9115 2.45777C16.8192 2.29994 16.7923 2.11226 16.8365 1.93485C16.8808 1.75745 16.9927 1.6044 17.1484 1.50844C17.304 1.41248 17.491 1.38123 17.6694 1.42138L23.2694 2.82138C23.4457 2.86973 23.5961 2.98516 23.6885 3.14299C23.7808 3.30081 23.8077 3.48849 23.7635 3.6659C23.7192 3.84331 23.6073 3.99635 23.4516 4.09231C23.296 4.18827 23.109 4.21952 22.9306 4.17938L17.3306 2.77938Z" fill="#005A4F"/>
</svg>
