<svg width="28" height="28" viewBox="0 0 28 28" fill="none" xmlns="http://www.w3.org/2000/svg">
<path d="M25.667 6.63198C25.667 5.49208 25.2142 4.39887 24.4081 3.59284C23.6021 2.78681 22.5089 2.33398 21.369 2.33398C20.2291 2.33398 19.1359 2.78681 18.3298 3.59284C17.5238 4.39887 17.071 5.49208 17.071 6.63198V18.2987C17.071 20.2529 16.2947 22.1272 14.9128 23.5091C13.5309 24.891 11.6566 25.6673 9.70233 25.6673C7.74803 25.6673 5.87378 24.891 4.49189 23.5091C3.11 22.1272 2.33366 20.2529 2.33366 18.2987V16.9173" stroke="#005A4F" stroke-width="1.5" stroke-linecap="round"/>
<path d="M2.33366 16.9167C2.33366 18.5267 5.77066 19.8333 9.33366 19.8333C12.8967 19.8333 16.917 18.5267 16.917 16.9167C16.917 15.3067 12.8967 14 9.33366 14C5.77066 14 2.33366 15.3067 2.33366 16.9167Z" stroke="#005A4F" stroke-width="1.5"/>
</svg>
