<svg width="28" height="28" viewBox="0 0 28 28" fill="none" xmlns="http://www.w3.org/2000/svg">
<path d="M9.56678 10.5872C7.11678 13.0395 0.740952 23.3354 2.70212 25.2977C4.66445 27.2577 14.9603 20.8842 17.4126 18.433C19.8626 15.9807 21.335 14.5107 17.4126 10.5872C13.4903 6.66371 12.0191 8.13721 9.56678 10.5872Z" stroke="#005A4F" stroke-width="1.5"/>
<path d="M16.917 18.084L15.167 16.334M8.16699 12.834L9.91699 14.584M10.5003 22.1673L9.33366 21.0007M17.5003 2.33398C18.1047 2.93948 18.4978 4.23915 17.5003 5.96348M25.667 10.5007C25.0627 9.89515 23.7618 9.50198 22.0387 10.5007M22.4913 5.50965L20.2233 7.77765" stroke="#005A4F" stroke-width="1.5" stroke-linecap="round" stroke-linejoin="round"/>
</svg>
