<svg width="28" height="28" viewBox="0 0 28 28" fill="none" xmlns="http://www.w3.org/2000/svg">
<path d="M2.33301 18.7164C2.33301 18.0152 2.48817 17.3193 2.89942 16.7517C4.10926 15.0805 7.39109 11.668 13.9997 11.668C20.6083 11.668 23.8901 15.0811 25.0999 16.7517C25.5112 17.3193 25.6663 18.0152 25.6663 18.7164C25.6663 19.9412 25.1798 21.1159 24.3137 21.982C23.4476 22.8481 22.2729 23.3346 21.0481 23.3346H6.95126C5.72642 23.3346 4.55175 22.8481 3.68566 21.982C2.81957 21.1159 2.33301 19.9412 2.33301 18.7164Z" stroke="#005A4F" stroke-width="1.5" stroke-linecap="round" stroke-linejoin="round"/>
<path d="M6.99935 5.25065V7.58398M8.16602 12.834V15.1673M20.9993 5.25065V7.58398M19.8327 12.834V15.1673M13.9993 4.08398V7.58398M13.9993 11.6673V16.334M13.9993 11.6673C18.554 11.6673 21.5278 13.289 23.3327 14.8424M13.9993 11.6673C9.44468 11.6673 6.47085 13.2884 4.66602 14.8424" stroke="#005A4F" stroke-width="1.5" stroke-linecap="round"/>
</svg>
