<svg width="27" height="27" viewBox="0 0 27 27" fill="none" xmlns="http://www.w3.org/2000/svg">
<path d="M19.1248 7.875L23.0623 3.9375M19.1248 7.875V2.25M19.1248 7.875H24.7498M9.56235 10.6875H9.5736M14.0623 9.5625H14.0736M8.43735 15.1875H8.4486M12.9373 14.0625H12.9486M17.4373 12.9375H17.4486M7.31235 19.6875H7.3236M11.8123 18.5625H11.8236M16.3123 17.4375H16.3236M2.36235 19.2375C2.18981 19.9818 2.2096 20.7577 2.41985 21.4922C2.63011 22.2266 3.02389 22.8955 3.56411 23.4357C4.10433 23.976 4.7732 24.3697 5.50769 24.58C6.24217 24.7902 7.0181 24.81 7.76235 24.6375L17.8873 22.275C19.1737 22.0032 20.3596 21.3799 21.313 20.4746C22.2665 19.5693 22.9502 18.4173 23.2883 17.1467C23.6263 15.8761 23.6054 14.5366 23.2279 13.2772C22.8504 12.0178 22.1311 10.8877 21.1498 10.0125L16.8748 5.85C15.9536 4.93577 14.8057 4.28319 13.5489 3.95926C12.2921 3.63533 10.9718 3.65172 9.72344 4.00676C8.47509 4.36179 7.34372 5.04268 6.4455 5.9795C5.54728 6.91632 4.91457 8.07532 4.61235 9.3375L2.36235 19.2375Z" stroke="#005A4F" stroke-width="1.44643" stroke-linecap="round" stroke-linejoin="round"/>
</svg>
