<svg width="102" height="43" viewBox="0 0 102 43" fill="none" xmlns="http://www.w3.org/2000/svg">
<path d="M39.2623 19.2569L31.1306 18.2453L30.8844 20.2242L38.0276 21.1128L37.5173 25.215L30.3742 24.3264L30.0981 26.5456L38.5438 27.5962L38.0094 31.8922L23.9653 30.1452L26.0664 13.2539L39.7965 14.9618L39.2623 19.2569Z" fill="#F3BD4E"/>
<path d="M80.8054 29.465L74.937 30.3425L73.3702 27.5771L66.9687 28.5343L66.2794 31.6372L60.5076 32.5003L65.3498 14.5655L70.9284 13.7312L80.8054 29.465ZM67.9287 24.211L71.1884 23.7236L68.9239 19.7264L67.9287 24.211Z" fill="#E97B88"/>
<path d="M50.4942 11.6515C52.171 11.4787 53.6915 11.6068 55.0557 12.0364C56.4362 12.4645 57.6083 13.1586 58.5709 14.1186L55.25 17.7124C54.6547 17.1545 54.0267 16.7551 53.3662 16.5135C52.7203 16.2542 52.0186 16.1635 51.2608 16.2416C50.632 16.3064 50.0692 16.4615 49.5732 16.7081C49.0932 16.9531 48.6948 17.2799 48.3782 17.6873C48.0618 18.0946 47.8338 18.5662 47.6935 19.1019C47.5531 19.6378 47.5169 20.2368 47.585 20.8979C47.6499 21.5268 47.8067 22.0975 48.055 22.6097C48.3016 23.1055 48.6211 23.5206 49.0139 23.8549C49.4069 24.1892 49.8563 24.4368 50.3617 24.5966C50.8815 24.7385 51.4478 24.7781 52.0605 24.715C52.7054 24.6485 53.3235 24.4785 53.9146 24.2058C53.9763 24.1756 54.0376 24.1419 54.0999 24.1082L53.6566 19.8077L58.6157 19.2966L59.3536 26.456L58.9862 26.7491C58.1103 27.4169 57.1107 27.9731 55.9871 28.4169C54.703 28.9241 53.4392 29.2411 52.1976 29.369C50.8271 29.5102 49.5396 29.4315 48.3355 29.1319C47.146 28.8146 46.0833 28.3049 45.1473 27.6031C44.2274 26.8993 43.4777 26.0308 42.8987 24.9986C42.3198 23.9664 41.963 22.7973 41.8284 21.4912C41.6938 20.1851 41.8046 18.9678 42.1608 17.8392C42.5171 16.7106 43.081 15.7067 43.8542 14.8285C44.6275 13.9502 45.5735 13.2421 46.6913 12.7032C47.8236 12.1464 49.0913 11.7961 50.4942 11.6515Z" fill="#E66E3C"/>
<path d="M14.8117 21.4831L18.0575 9.6435L24.4331 8.81178L18.8083 29.1084L12.4336 29.94L1.79004 11.7656L8.76996 10.8551L14.8117 21.4831Z" fill="#32998D"/>
<path d="M92.498 17.9818L93.2652 10.2807L98.8304 10.8351L97.1431 27.7728L92.4486 27.3051L86.78 18.9609L86.0126 26.6639L80.4474 26.1095L82.1348 9.17188L86.8283 9.63945L92.498 17.9818Z" fill="#4EA0B2"/>
<path d="M33.6243 10.752L31.8571 4.58467L32.4472 4.41557L34.2144 10.5829L33.6243 10.752Z" fill="white"/>
<path d="M40.1857 9.15901L39.346 4.69808L39.9493 4.58453L40.789 9.04546L40.1857 9.15901ZM39.4664 3.65485C39.3418 3.67831 39.229 3.65555 39.128 3.58657C39.027 3.51759 38.9654 3.42363 38.943 3.30467C38.9206 3.18571 38.9444 3.07858 39.0145 2.98328C39.0834 2.88232 39.1802 2.82011 39.3049 2.79665C39.4295 2.7732 39.5417 2.79312 39.6416 2.85643C39.7415 2.91975 39.8027 3.01088 39.8251 3.12984C39.8485 3.25446 39.8258 3.36726 39.7568 3.46822C39.6935 3.56812 39.5967 3.63033 39.4664 3.65485Z" fill="white"/>
<path d="M48.2806 8.09458C47.8555 8.12926 47.5187 8.04107 47.2701 7.83001C47.0216 7.61896 46.8802 7.30374 46.846 6.88435L46.4994 2.63587L47.1113 2.58596L47.455 6.79996C47.4766 7.06424 47.5593 7.2628 47.7031 7.39564C47.8527 7.52802 48.0539 7.5839 48.3067 7.56328C48.5767 7.54125 48.7945 7.44542 48.9599 7.27577L49.2112 7.6977C49.0994 7.81669 48.9595 7.90908 48.7914 7.97484C48.629 8.04014 48.4587 8.08005 48.2806 8.09458ZM45.8124 4.21003L45.7709 3.70159L48.5716 3.47312L48.6131 3.98156L45.8124 4.21003Z" fill="white"/>
<path d="M56.7137 7.91452C56.2874 7.89964 55.9631 7.77297 55.7407 7.5345C55.5183 7.29603 55.4145 6.96654 55.4291 6.54601L55.5778 2.28602L56.1913 2.30743L56.0439 6.53286C56.0346 6.79785 56.0937 7.00466 56.2212 7.1533C56.3544 7.30214 56.5478 7.38098 56.8012 7.38983C57.072 7.39928 57.2994 7.32935 57.4834 7.18004L57.684 7.62827C57.5592 7.7335 57.4095 7.80903 57.2349 7.85484C57.066 7.90086 56.8923 7.92075 56.7137 7.91452ZM54.7128 3.76984L54.7306 3.26002L57.5389 3.35803L57.5211 3.86784L54.7128 3.76984Z" fill="white"/>
<path d="M63.716 8.46713L64.6083 2.11399L65.2162 2.19937L64.3239 8.55251L63.716 8.46713Z" fill="white"/>
<path d="M72.1826 10.1643C71.7253 10.0447 71.3486 9.84493 71.0524 9.5649C70.7577 9.27929 70.5566 8.94367 70.4489 8.55803C70.3427 8.16681 70.3465 7.75371 70.4602 7.31874C70.574 6.88377 70.7666 6.52305 71.0382 6.23659C71.3153 5.95158 71.6404 5.75658 72.0134 5.65157C72.3935 5.54244 72.787 5.54111 73.1941 5.64758C73.6068 5.75551 73.9473 5.94585 74.2155 6.21859C74.4908 6.48721 74.676 6.81567 74.7711 7.20397C74.8676 7.5867 74.8582 7.99833 74.743 8.43888C74.7357 8.46676 74.7249 8.49671 74.7106 8.52871C74.7033 8.55659 74.6953 8.58726 74.6865 8.62072L70.8638 7.62091L70.9797 7.17757L74.4846 8.09425L74.2045 8.20865C74.2876 7.89079 74.2915 7.59094 74.2163 7.30911C74.1481 7.02316 74.0151 6.77985 73.8174 6.57917C73.6196 6.3785 73.3674 6.23806 73.0607 6.15784C72.7595 6.07908 72.4708 6.07805 72.1946 6.15475C71.9183 6.23144 71.6805 6.37776 71.481 6.5937C71.2815 6.80964 71.1395 7.07934 71.0549 7.40278L71.0308 7.49479C70.9433 7.82938 70.9385 8.1439 71.0164 8.43835C71.1013 8.72867 71.2559 8.98061 71.4801 9.19415C71.7113 9.40357 71.997 9.55277 72.3371 9.64174C72.6048 9.71174 72.8654 9.72925 73.1188 9.69424C73.3778 9.6607 73.6165 9.56822 73.8348 9.41679L74.0688 9.88909C73.8124 10.0723 73.5203 10.1865 73.1927 10.2319C72.8706 10.2788 72.5339 10.2562 72.1826 10.1643Z" fill="white"/>
<path d="M39.3055 40.2417C38.8458 40.1317 38.465 39.9398 38.163 39.666C37.8624 39.3867 37.6542 39.0553 37.5385 38.672C37.4241 38.2831 37.4192 37.8701 37.5238 37.4328C37.6285 36.9955 37.8135 36.6309 38.079 36.3388C38.3501 36.048 38.671 35.8462 39.0417 35.7334C39.4194 35.6164 39.8129 35.6068 40.2221 35.7047C40.6369 35.8039 40.9813 35.9871 41.2553 36.2542C41.5361 36.5169 41.7282 36.8415 41.8313 37.2277C41.9359 37.6083 41.9351 38.02 41.8292 38.4629C41.8225 38.4909 41.8123 38.5211 41.7986 38.5534C41.7919 38.5814 41.7846 38.6122 41.7765 38.6459L37.9337 37.7264L38.0403 37.2808L41.5636 38.1238L41.2859 38.244C41.3624 37.9245 41.36 37.6246 41.2789 37.3444C41.2047 37.06 41.0667 36.8195 40.8647 36.623C40.6628 36.4265 40.4077 36.2914 40.0994 36.2176C39.7967 36.1452 39.508 36.1502 39.2334 36.2327C38.9588 36.3152 38.7241 36.4664 38.5292 36.6865C38.3343 36.9066 38.1979 37.1792 38.1201 37.5043L38.098 37.5968C38.0175 37.9332 38.0193 38.2477 38.1034 38.5405C38.1944 38.829 38.3542 39.0776 38.5828 39.2864C38.8183 39.4909 39.1071 39.6341 39.4491 39.7159C39.7181 39.7803 39.979 39.7923 40.2316 39.752C40.4899 39.7131 40.7266 39.6156 40.9417 39.4596L41.1855 39.9269C40.933 40.1154 40.6434 40.2358 40.3168 40.288C39.9958 40.3416 39.6587 40.3262 39.3055 40.2417Z" fill="white"/>
<path d="M50.7785 41.8307L50.8393 40.8295L50.8234 40.664L50.925 38.9897C50.9483 38.6042 50.857 38.3013 50.6509 38.0809C50.4506 37.8608 50.1376 37.7379 49.7118 37.7121C49.4184 37.6943 49.1364 37.7262 48.8658 37.808C48.5952 37.8897 48.3629 38.0056 48.169 38.1555L47.9206 37.6813C48.1626 37.4997 48.4479 37.3668 48.7764 37.2828C49.1052 37.1931 49.448 37.159 49.8047 37.1806C50.3916 37.2163 50.8343 37.3904 51.133 37.703C51.4377 38.0102 51.5721 38.4602 51.5361 39.0528L51.3654 41.8663L50.7785 41.8307ZM49.2138 41.779C48.8744 41.7584 48.5814 41.6858 48.3349 41.5611C48.0944 41.431 47.914 41.2642 47.7935 41.0605C47.6734 40.8511 47.6212 40.6169 47.6369 40.358C47.6513 40.1221 47.7188 39.9126 47.8397 39.7293C47.9666 39.5407 48.1601 39.3965 48.4203 39.2968C48.6865 39.1917 49.0354 39.1522 49.4669 39.1784L51.029 39.2732L51.0013 39.7306L49.4564 39.6369C49.0192 39.6103 48.7095 39.6695 48.5275 39.8144C48.3512 39.9596 48.2561 40.1473 48.2421 40.3774C48.2264 40.6363 48.3145 40.8496 48.5065 41.0171C48.6984 41.1847 48.9756 41.2795 49.3381 41.3015C49.6833 41.3224 49.9843 41.2627 50.2412 41.1224C50.5041 40.9767 50.7022 40.7577 50.8354 40.4655L50.9478 40.8968C50.8146 41.189 50.5987 41.4155 50.3002 41.5764C50.0075 41.7377 49.6454 41.8052 49.2138 41.779Z" fill="white"/>
<path d="M59.1508 41.614C58.7263 41.6559 58.388 41.5735 58.1359 41.3667C57.8838 41.1599 57.737 40.8472 57.6956 40.4284L57.2765 36.1865L57.8874 36.1261L58.3031 40.3336C58.3292 40.5975 58.4153 40.7946 58.5614 40.925C58.7132 41.0548 58.9154 41.1072 59.1677 41.0823C59.4374 41.0557 59.6534 40.9561 59.8159 40.7837L60.0744 41.2012C59.9647 41.3221 59.8264 41.4169 59.6594 41.4855C59.4981 41.5536 59.3286 41.5964 59.1508 41.614ZM56.6165 37.7722L56.5663 37.2645L59.3627 36.9882L59.4129 37.4959L56.6165 37.7722Z" fill="white"/>
<path d="M67.7098 40.1042C67.3468 40.1969 66.9905 40.2343 66.6409 40.2165C66.2899 40.1931 66.0022 40.1267 65.778 40.0174L65.9263 39.4798C66.1392 39.5682 66.3982 39.6271 66.7031 39.6563C67.0066 39.6799 67.3119 39.6525 67.6191 39.5741C68.038 39.4671 68.3231 39.3259 68.4747 39.1504C68.6247 38.9693 68.672 38.7698 68.6163 38.552C68.575 38.39 68.4898 38.2779 68.3609 38.2157C68.2361 38.1464 68.0843 38.1108 67.9053 38.1089C67.7249 38.1014 67.5271 38.1073 67.3119 38.1266C67.0967 38.1458 66.8801 38.1595 66.6621 38.1676C66.4496 38.1742 66.2489 38.1571 66.06 38.1161C65.8696 38.0695 65.7021 37.9844 65.5575 37.8607C65.4184 37.7355 65.3168 37.5473 65.2527 37.296C65.1914 37.0558 65.2035 36.8237 65.289 36.5996C65.3746 36.3755 65.5323 36.1776 65.7621 36.0059C65.996 35.8271 66.3001 35.69 66.6743 35.5944C66.9591 35.5217 67.254 35.4881 67.5588 35.4935C67.8621 35.4934 68.1217 35.5313 68.3373 35.6071L68.1996 36.1509C67.9699 36.0668 67.7362 36.0253 67.4985 36.0265C67.2594 36.0221 67.0282 36.0484 66.8048 36.1055C66.4083 36.2067 66.1329 36.3514 65.9786 36.5395C65.8286 36.7206 65.7806 36.9173 65.8348 37.1295C65.8776 37.2971 65.9614 37.4155 66.0861 37.4847C66.2165 37.5526 66.3726 37.593 66.5544 37.6061C66.7404 37.6122 66.9382 37.6063 67.1478 37.5885C67.363 37.5692 67.5775 37.559 67.7914 37.558C68.0095 37.5499 68.213 37.5663 68.4019 37.6073C68.595 37.6413 68.7611 37.7209 68.9001 37.846C69.0433 37.9641 69.1455 38.1432 69.2069 38.3834C69.2725 38.6403 69.2569 38.8822 69.1602 39.1092C69.0676 39.3291 68.8981 39.5271 68.6515 39.7031C68.4091 39.8721 68.0952 40.0058 67.7098 40.1042Z" fill="white"/>
</svg>
