<svg width="104" height="44" viewBox="0 0 104 44" fill="none" xmlns="http://www.w3.org/2000/svg">
<path d="M40.1766 19.7041L31.855 18.6689L31.603 20.6943L38.9119 21.6035L38.3897 25.8016L31.0808 24.8924L30.7984 27.163L39.4407 28.2381L38.8941 32.6329L24.5234 30.8453L26.6733 13.5615L40.7233 15.3092L40.1766 19.7041Z" fill="#F3BD4E"/>
<path d="M82.6838 30.1499L76.6793 31.0478L75.0774 28.2195L68.5252 29.1993L67.8208 32.3725L61.9148 33.2557L66.8694 14.9042L72.5784 14.0504L82.6838 30.1499ZM69.5076 24.7749L72.8436 24.276L70.5267 20.186L69.5076 24.7749Z" fill="#E97B88"/>
<path d="M51.6688 11.9224C53.3846 11.7456 54.9404 11.8774 56.3364 12.317C57.7489 12.7551 58.9481 13.4654 59.9332 14.4478L56.5353 18.1241C55.9262 17.5533 55.2832 17.1445 54.6074 16.8973C53.9466 16.6321 53.2285 16.5388 52.4532 16.6187C51.8099 16.685 51.2341 16.8447 50.7266 17.097C50.2355 17.3478 49.8274 17.6819 49.5035 18.0988C49.1797 18.5156 48.9461 18.9982 48.8025 19.5465C48.659 20.0948 48.6218 20.7075 48.6915 21.3839C48.7578 22.0275 48.9183 22.6117 49.1725 23.1359C49.4248 23.6433 49.752 24.0681 50.154 24.4101C50.556 24.7522 51.0159 25.0047 51.5329 25.1682C52.0648 25.3135 52.6443 25.3541 53.2713 25.2895C53.9312 25.2215 54.5636 25.048 55.1684 24.769C55.2315 24.7381 55.2948 24.7043 55.3584 24.6699L54.9048 20.2684L59.9795 19.7454L60.7346 27.0718L60.3581 27.3717C59.4618 28.0551 58.439 28.6241 57.2893 29.0782C55.9754 29.5971 54.6823 29.9222 53.4118 30.0531C52.0094 30.1976 50.6919 30.1161 49.4597 29.8095C48.2425 29.4848 47.1549 28.9634 46.1972 28.2452C45.2559 27.5251 44.4887 26.6365 43.8962 25.5803C43.3038 24.5241 42.9386 23.3275 42.8008 21.9911C42.6631 20.6547 42.7766 19.4086 43.1411 18.2539C43.5057 17.0993 44.0836 16.0727 44.8746 15.1742C45.6657 14.2756 46.6335 13.5504 47.7772 12.9989C48.9358 12.4293 50.2332 12.0704 51.6688 11.9224Z" fill="#E66E3C"/>
<path d="M15.155 21.9821L18.4771 9.86754L25.0009 9.01649L19.2456 29.7851L12.7218 30.6361L1.83105 12.0391L8.97366 11.1073L15.155 21.9821Z" fill="#32998D"/>
<path d="M94.6479 18.3993L95.4329 10.5193L101.128 11.0867L99.4018 28.4179L94.5984 27.9394L88.7971 19.4014L88.0119 27.2833L82.3174 26.716L84.0439 9.38477L88.8473 9.86328L94.6479 18.3993Z" fill="#4EA0B2"/>
<path d="M34.3485 10.8021L32.5402 4.49142L33.144 4.31839L34.9523 10.6291L34.3485 10.8021Z" fill="#044246"/>
<path d="M41.0812 9.16509L40.222 4.60042L40.8393 4.48423L41.6985 9.0489L41.0812 9.16509ZM40.3452 3.53293C40.2177 3.55693 40.1023 3.53364 39.9989 3.46306C39.8956 3.39248 39.8325 3.29633 39.8096 3.1746C39.7867 3.05288 39.8111 2.94326 39.8828 2.84574C39.9533 2.74243 40.0524 2.67878 40.1799 2.65477C40.3074 2.63077 40.4223 2.65116 40.5245 2.71595C40.6267 2.78073 40.6893 2.87399 40.7122 2.99571C40.7362 3.12323 40.7129 3.23865 40.6424 3.34196C40.5776 3.44418 40.4785 3.50784 40.3452 3.53293Z" fill="#044246"/>
<path d="M49.3861 8.07465C48.9511 8.11013 48.6064 8.01989 48.3521 7.80393C48.0977 7.58797 47.9531 7.26541 47.9181 6.83627L47.5634 2.489L48.1895 2.43792L48.5413 6.74992C48.5633 7.02034 48.6479 7.22352 48.7951 7.35946C48.9482 7.49492 49.1541 7.55209 49.4127 7.53099C49.689 7.50845 49.9118 7.41039 50.0811 7.2368L50.3383 7.66853C50.2239 7.7903 50.0807 7.88483 49.9087 7.95212C49.7425 8.01894 49.5683 8.05978 49.3861 8.07465ZM46.8604 4.09976L46.818 3.5795L49.6838 3.34572L49.7263 3.86598L46.8604 4.09976Z" fill="#044246"/>
<path d="M58.0394 7.88906C57.6032 7.87384 57.2713 7.74422 57.0438 7.50021C56.8162 7.25619 56.7099 6.91903 56.7249 6.48873L56.8771 2.12967L57.5048 2.15157L57.354 6.47527C57.3445 6.74642 57.405 6.95804 57.5354 7.11014C57.6717 7.26244 57.8696 7.34312 58.1289 7.35217C58.406 7.36184 58.6387 7.29028 58.827 7.13751L59.0323 7.59616C58.9046 7.70384 58.7514 7.78112 58.5727 7.828C58.3999 7.87508 58.2221 7.89544 58.0394 7.88906ZM55.9919 3.648L56.0101 3.12632L58.8838 3.22661L58.8656 3.74828L55.9919 3.648Z" fill="#044246"/>
<path d="M65.2265 8.45622L66.1395 1.95533L66.7616 2.0427L65.8485 8.54359L65.2265 8.45622Z" fill="#044246"/>
<path d="M73.9139 10.1993C73.446 10.0769 73.0605 9.87244 72.7575 9.58589C72.4559 9.29364 72.2501 8.95021 72.1399 8.5556C72.0312 8.15529 72.0351 7.73258 72.1515 7.2875C72.2679 6.84241 72.465 6.4733 72.7429 6.18018C73.0264 5.88854 73.3591 5.689 73.7408 5.58155C74.1297 5.46989 74.5324 5.46853 74.949 5.57748C75.3712 5.68792 75.7196 5.88268 75.9941 6.16176C76.2758 6.43663 76.4653 6.77273 76.5626 7.17006C76.6614 7.56168 76.6518 7.98289 76.5339 8.43369C76.5264 8.46222 76.5154 8.49286 76.5007 8.5256C76.4932 8.55413 76.485 8.58552 76.4761 8.61976L72.5644 7.59669L72.6831 7.14304L76.2695 8.08104L75.9828 8.1981C76.0679 7.87285 76.0719 7.56603 75.9949 7.27764C75.9251 6.98504 75.7891 6.73607 75.5867 6.53073C75.3844 6.32539 75.1263 6.18168 74.8124 6.0996C74.5043 6.01901 74.2089 6.01795 73.9262 6.09643C73.6435 6.17491 73.4001 6.32464 73.196 6.5456C72.9919 6.76656 72.8466 7.04252 72.76 7.37349L72.7354 7.46764C72.6458 7.81002 72.6409 8.13185 72.7206 8.43314C72.8075 8.73022 72.9657 8.98801 73.1951 9.20652C73.4317 9.42081 73.724 9.57348 74.0721 9.66452C74.346 9.73615 74.6126 9.75406 74.8719 9.71825C75.137 9.68392 75.3812 9.58929 75.6046 9.43434L75.844 9.91762C75.5816 10.105 75.2828 10.222 74.9475 10.2684C74.6179 10.3163 74.2734 10.2933 73.9139 10.1993Z" fill="#044246"/>
<path d="M40.2686 40.9735C39.7982 40.861 39.4086 40.6646 39.0996 40.3845C38.792 40.0987 38.5789 39.7596 38.4605 39.3674C38.3435 38.9695 38.3385 38.5468 38.4455 38.0993C38.5526 37.6519 38.7419 37.2787 39.0136 36.9799C39.291 36.6823 39.6193 36.4759 39.9987 36.3604C40.3852 36.2407 40.7878 36.2308 41.2065 36.331C41.631 36.4326 41.9834 36.62 42.2637 36.8933C42.5511 37.1622 42.7476 37.4942 42.8532 37.8894C42.9602 38.2789 42.9594 38.7002 42.851 39.1534C42.8441 39.1821 42.8337 39.2129 42.8197 39.246C42.8129 39.2747 42.8053 39.3062 42.7971 39.3406L38.8649 38.3998L38.974 37.9438L42.5792 38.8064L42.2951 38.9294C42.3733 38.6025 42.3709 38.2956 42.2879 38.0089C42.212 37.7178 42.0707 37.4718 41.8641 37.2707C41.6575 37.0697 41.3965 36.9314 41.081 36.8559C40.7712 36.7818 40.4758 36.7869 40.1949 36.8713C39.9139 36.9557 39.6737 37.1105 39.4743 37.3357C39.2748 37.5609 39.1353 37.8398 39.0557 38.1725L39.0331 38.2672C38.9507 38.6114 38.9525 38.9332 39.0385 39.2328C39.1317 39.528 39.2952 39.7824 39.5291 39.9961C39.7701 40.2053 40.0656 40.3518 40.4155 40.4356C40.6909 40.5014 40.9578 40.5138 41.2163 40.4725C41.4806 40.4326 41.7228 40.3329 41.9429 40.1733L42.1924 40.6515C41.9339 40.8444 41.6376 40.9675 41.3034 41.021C40.9749 41.0758 40.63 41.06 40.2686 40.9735Z" fill="#044246"/>
<path d="M51.9714 42.5927L52.0335 41.5683L52.0172 41.3989L52.1212 39.6857C52.1451 39.2912 52.0517 38.9812 51.8408 38.7557C51.6358 38.5306 51.3155 38.4048 50.8799 38.3783C50.5796 38.3601 50.291 38.3928 50.0141 38.4765C49.7372 38.5601 49.4996 38.6787 49.3012 38.8321L49.047 38.3469C49.2946 38.161 49.5865 38.0251 49.9226 37.9391C50.2591 37.8473 50.6099 37.8124 50.9749 37.8346C51.5754 37.871 52.0285 38.0492 52.334 38.3691C52.6459 38.6834 52.7834 39.1438 52.7466 39.7502L52.5719 42.6292L51.9714 42.5927ZM50.3703 42.5399C50.0229 42.5188 49.7231 42.4445 49.4709 42.3169C49.2249 42.1838 49.0402 42.013 48.917 41.8046C48.7941 41.5904 48.7406 41.3508 48.7567 41.0858C48.7714 40.8445 48.8405 40.63 48.9642 40.4425C49.0941 40.2495 49.2921 40.102 49.5583 39.9999C49.8307 39.8924 50.1877 39.852 50.6293 39.8788L52.2277 39.9758L52.1993 40.4438L50.6185 40.3479C50.1711 40.3208 49.8542 40.3813 49.668 40.5295C49.4876 40.6781 49.3902 40.8702 49.376 41.1057C49.3599 41.3706 49.45 41.5888 49.6465 41.7603C49.8429 41.9317 50.1265 42.0287 50.4974 42.0512C50.8507 42.0727 51.1587 42.0116 51.4215 41.868C51.6905 41.7189 51.8932 41.4948 52.0296 41.1958L52.1446 41.6371C52.0083 41.9361 51.7874 42.1679 51.4819 42.3326C51.1824 42.4976 50.8118 42.5667 50.3703 42.5399Z" fill="#044246"/>
<path d="M60.5047 42.3744C60.0703 42.4173 59.7242 42.333 59.4662 42.1214C59.2082 41.9098 59.058 41.5897 59.0157 41.1613L58.5868 36.8207L59.2119 36.7589L59.6373 41.0643C59.664 41.3343 59.7521 41.536 59.9016 41.6694C60.057 41.8022 60.2638 41.8559 60.522 41.8303C60.7979 41.8031 61.019 41.7012 61.1853 41.5248L61.4498 41.9521C61.3375 42.0758 61.196 42.1727 61.0251 42.2429C60.8601 42.3126 60.6866 42.3564 60.5047 42.3744ZM57.9115 38.4432L57.8601 37.9238L60.7216 37.641L60.7729 38.1605L57.9115 38.4432Z" fill="#044246"/>
<path d="M69.2324 40.8344C68.861 40.9293 68.4964 40.9676 68.1386 40.9494C67.7794 40.9254 67.4851 40.8575 67.2557 40.7456L67.4074 40.1956C67.6253 40.286 67.8903 40.3462 68.2023 40.3761C68.5128 40.4003 68.8253 40.3723 69.1396 40.292C69.5682 40.1826 69.86 40.038 70.015 39.8584C70.1686 39.6731 70.2169 39.469 70.16 39.2462C70.1177 39.0804 70.0306 38.9657 69.8986 38.902C69.771 38.8311 69.6156 38.7947 69.4325 38.7928C69.2479 38.7851 69.0455 38.7911 68.8253 38.8108C68.6051 38.8305 68.3834 38.8445 68.1603 38.8528C67.9429 38.8596 67.7375 38.842 67.5442 38.8001C67.3494 38.7524 67.178 38.6653 67.03 38.5387C66.8878 38.4107 66.7838 38.2181 66.7181 37.9609C66.6554 37.7152 66.6678 37.4777 66.7553 37.2483C66.8429 37.019 67.0042 36.8165 67.2394 36.6408C67.4788 36.4579 67.7899 36.3176 68.1728 36.2198C68.4643 36.1454 68.7659 36.111 69.0778 36.1166C69.3883 36.1164 69.6538 36.1552 69.8745 36.2327L69.7335 36.7892C69.4985 36.7031 69.2594 36.6607 69.0162 36.6619C68.7716 36.6574 68.5349 36.6844 68.3063 36.7427C67.9006 36.8463 67.6188 36.9944 67.461 37.1869C67.3074 37.3722 67.2584 37.5734 67.3138 37.7906C67.3576 37.962 67.4433 38.0832 67.571 38.1541C67.7044 38.2235 67.8641 38.2649 68.0501 38.2783C68.2404 38.2845 68.4428 38.2784 68.6573 38.2602C68.8775 38.2405 69.097 38.2301 69.3159 38.229C69.539 38.2207 69.7472 38.2376 69.9406 38.2795C70.1382 38.3143 70.3081 38.3957 70.4504 38.5237C70.5969 38.6446 70.7015 38.8279 70.7643 39.0736C70.8314 39.3365 70.8155 39.5841 70.7165 39.8163C70.6218 40.0414 70.4483 40.2439 70.196 40.424C69.9479 40.5969 69.6267 40.7337 69.2324 40.8344Z" fill="#044246"/>
</svg>
