<svg width="20" height="20" viewBox="0 0 20 20" fill="none" xmlns="http://www.w3.org/2000/svg">
<path d="M10.0009 3.77446C10.9532 2.92251 12.1955 2.46748 13.4728 2.50282C14.7501 2.53815 15.9654 3.06116 16.8692 3.96446C17.772 4.86712 18.2953 6.08092 18.3319 7.35704C18.3684 8.63315 17.9155 9.87492 17.0659 10.8278L9.99919 17.9045L2.93419 10.8278C2.08356 9.87443 1.63019 8.63159 1.66713 7.35445C1.70408 6.0773 2.22854 4.86276 3.13285 3.96015C4.03716 3.05755 5.25269 2.53538 6.5299 2.50085C7.80712 2.46632 9.04909 2.92204 10.0009 3.77446ZM15.6892 5.14196C15.087 4.54077 14.2776 4.19265 13.427 4.16895C12.5764 4.14524 11.7489 4.44774 11.1142 5.01446L10.0017 6.0128L8.88835 5.0153C8.25641 4.45021 7.4329 4.14713 6.58541 4.16773C5.73791 4.18834 4.9301 4.53108 4.32637 5.12621C3.72264 5.72134 3.36834 6.52415 3.33558 7.37126C3.30282 8.21838 3.59405 9.04615 4.15002 9.68613L10 15.5453L15.85 9.68696C16.4036 9.0498 16.6949 8.22633 16.6651 7.38277C16.6352 6.53922 16.2865 5.7384 15.6892 5.14196Z" fill="#044246"/>
</svg>
