<svg width="20" height="20" viewBox="0 0 20 20" fill="none" xmlns="http://www.w3.org/2000/svg">
<path d="M16.6663 16.6663C16.6663 16.8873 16.5785 17.0992 16.4223 17.2555C16.266 17.4118 16.054 17.4996 15.833 17.4996H4.16634C3.94533 17.4996 3.73337 17.4118 3.57709 17.2555C3.42081 17.0992 3.33301 16.8873 3.33301 16.6663V9.16627H0.833008L9.43884 1.34294C9.59227 1.20334 9.79224 1.12598 9.99967 1.12598C10.2071 1.12598 10.4071 1.20334 10.5605 1.34294L19.1663 9.16627H16.6663V16.6663ZM14.9997 15.8329V7.63044L9.99967 3.08544L4.99967 7.63044V15.8329H14.9997ZM9.99967 14.1663L7.20051 11.3671C6.84887 11.0155 6.65133 10.5386 6.65133 10.0413C6.65133 9.54399 6.84887 9.06707 7.20051 8.71544C7.55214 8.36381 8.02906 8.16626 8.52634 8.16626C9.02362 8.16626 9.50054 8.36381 9.85217 8.71544L9.99967 8.86294L10.1472 8.71544C10.3213 8.54133 10.528 8.40322 10.7555 8.30899C10.983 8.21476 11.2268 8.16626 11.473 8.16626C11.7192 8.16626 11.9631 8.21476 12.1905 8.30899C12.418 8.40322 12.6247 8.54133 12.7988 8.71544C12.973 8.88955 13.1111 9.09625 13.2053 9.32374C13.2995 9.55123 13.348 9.79504 13.348 10.0413C13.348 10.2875 13.2995 10.5313 13.2053 10.7588C13.1111 10.9863 12.973 11.193 12.7988 11.3671L9.99967 14.1663Z" fill="#044246"/>
</svg>
