<svg width="20" height="20" viewBox="0 0 20 20" fill="none" xmlns="http://www.w3.org/2000/svg">
<path d="M6.90175 17.2833C7.25739 17.2833 7.54569 16.9825 7.54569 16.6114C7.54569 16.2403 7.25739 15.9395 6.90175 15.9395C6.54611 15.9395 6.25781 16.2403 6.25781 16.6114C6.25781 16.9825 6.54611 17.2833 6.90175 17.2833Z" stroke="#005A4F" stroke-width="1.85455" stroke-linecap="round" stroke-linejoin="round"/>
<path d="M15.9164 17.2833C16.272 17.2833 16.5603 16.9825 16.5603 16.6114C16.5603 16.2403 16.272 15.9395 15.9164 15.9395C15.5608 15.9395 15.2725 16.2403 15.2725 16.6114C15.2725 16.9825 15.5608 17.2833 15.9164 17.2833Z" stroke="#005A4F" stroke-width="1.85455" stroke-linecap="round" stroke-linejoin="round"/>
<path d="M1.75 2.5H4.32576L6.25758 13.9229H16.5606" stroke="#005A4F" stroke-width="1.85455" stroke-linecap="round" stroke-linejoin="round"/>
<path d="M6.25761 11.235H16.2966C16.3711 11.235 16.4433 11.2082 16.5009 11.1589C16.5585 11.1097 16.5979 11.0411 16.6126 10.965L17.7716 4.91753C17.781 4.86876 17.7799 4.81844 17.7683 4.77019C17.7568 4.72194 17.7351 4.67697 17.7049 4.63852C17.6746 4.60007 17.6366 4.5691 17.5935 4.54785C17.5504 4.5266 17.5034 4.51559 17.4557 4.51563H4.96973" stroke="#005A4F" stroke-width="1.85455" stroke-linecap="round" stroke-linejoin="round"/>
</svg>
