<svg width="28" height="28" viewBox="0 0 28 28" fill="none" xmlns="http://www.w3.org/2000/svg">
<path d="M6.5382 2.80081C5.6646 2.80081 4.8932 3.41401 4.7322 4.29601C4.525 5.44121 4.2002 7.47961 4.2002 9.10081C4.2002 10.8242 5.09059 12.339 6.43319 13.2112C6.81259 13.459 7.0002 13.7782 7.0002 14.0512V14.6252C7.0002 14.6504 6.9988 14.6756 6.996 14.7008C6.9582 15.0648 6.7846 16.7014 6.6208 18.3842C6.4598 20.0432 6.3002 21.8142 6.3002 22.4008C6.3002 23.1434 6.59519 23.8556 7.1203 24.3807C7.6454 24.9058 8.35759 25.2008 9.1002 25.2008C9.8428 25.2008 10.555 24.9058 11.0801 24.3807C11.6052 23.8556 11.9002 23.1434 11.9002 22.4008C11.9002 21.8128 11.7406 20.0432 11.5796 18.3842C11.4599 17.1563 11.3348 15.929 11.2044 14.7022L11.2002 14.6252V14.0512C11.2002 13.7768 11.3878 13.4576 11.7672 13.2112C12.4526 12.7665 13.0159 12.1576 13.4059 11.4397C13.7959 10.7218 14.0002 9.91778 14.0002 9.10081C14.0002 7.47961 13.6754 5.44121 13.4682 4.29601C13.3904 3.87452 13.1668 3.49382 12.8367 3.22049C12.5065 2.94716 12.0908 2.79861 11.6622 2.80081C11.1862 2.80081 10.7522 2.97861 10.4246 3.27121C10.0503 2.96695 9.58259 2.80084 9.1002 2.80081C8.5976 2.80081 8.137 2.97721 7.7758 3.27121C7.43588 2.96726 6.99418 2.79972 6.5382 2.80081ZM8.4002 4.90081C8.4002 4.71515 8.47395 4.53711 8.60522 4.40583C8.7365 4.27456 8.91454 4.20081 9.1002 4.20081C9.28585 4.20081 9.46389 4.27456 9.59517 4.40583C9.72645 4.53711 9.8002 4.71515 9.8002 4.90081V9.10081C9.8002 9.28646 9.87394 9.4645 10.0052 9.59578C10.1365 9.72706 10.3145 9.80081 10.5002 9.80081C10.6858 9.80081 10.8639 9.72706 10.9952 9.59578C11.1264 9.4645 11.2002 9.28646 11.2002 9.10081V4.66281C11.2002 4.60213 11.2121 4.54206 11.2354 4.48601C11.2586 4.42995 11.2926 4.37902 11.3355 4.33612C11.3784 4.29322 11.4293 4.25919 11.4854 4.23597C11.5414 4.21276 11.6015 4.20081 11.6622 4.20081C11.882 4.20081 12.0542 4.35201 12.0906 4.54661C12.2964 5.68481 12.6002 7.61541 12.6002 9.10081C12.6003 9.68466 12.4543 10.2592 12.1755 10.7723C11.8968 11.2853 11.4941 11.7204 11.0042 12.038C10.3896 12.437 9.8002 13.1384 9.8002 14.0512V14.6252C9.8002 14.6999 9.80393 14.7745 9.8114 14.8492C9.8506 15.2104 10.0228 16.8428 10.1866 18.52C10.3518 20.221 10.5002 21.901 10.5002 22.4008C10.5002 22.7721 10.3527 23.1282 10.0901 23.3908C9.82759 23.6533 9.4715 23.8008 9.1002 23.8008C8.72889 23.8008 8.3728 23.6533 8.11025 23.3908C7.8477 23.1282 7.7002 22.7721 7.7002 22.4008C7.7002 21.901 7.8486 20.221 8.0138 18.52C8.1776 16.8428 8.3498 15.2104 8.389 14.8492C8.39646 14.7745 8.4002 14.6999 8.4002 14.6252V14.0512C8.4002 13.1384 7.8108 12.437 7.1962 12.038C6.70629 11.7204 6.30363 11.2853 6.02488 10.7723C5.74612 10.2592 5.60013 9.68466 5.6002 9.10081C5.6002 7.61681 5.904 5.68481 6.1098 4.54661C6.12897 4.44745 6.18267 4.35829 6.26136 4.29498C6.34005 4.23168 6.43863 4.19831 6.5396 4.20081C6.66188 4.20118 6.77903 4.25001 6.86537 4.33662C6.95171 4.42322 7.0002 4.54052 7.0002 4.66281V9.10081C7.0002 9.28646 7.07395 9.4645 7.20522 9.59578C7.3365 9.72706 7.51454 9.80081 7.7002 9.80081C7.88585 9.80081 8.06389 9.72706 8.19517 9.59578C8.32645 9.4645 8.4002 9.28646 8.4002 9.10081V4.90081ZM15.4002 9.10081C15.4002 7.42994 16.0639 5.82751 17.2454 4.64603C18.4269 3.46455 20.0293 2.80081 21.7002 2.80081C21.8858 2.80081 22.0639 2.87456 22.1952 3.00583C22.3264 3.13711 22.4002 3.31515 22.4002 3.50081V13.27L22.4282 13.5836C22.5373 14.8415 22.6437 16.0996 22.7474 17.358C22.921 19.4678 23.1002 21.7834 23.1002 22.4008C23.1002 23.1434 22.8052 23.8556 22.2801 24.3807C21.755 24.9058 21.0428 25.2008 20.3002 25.2008C19.5576 25.2008 18.8454 24.9058 18.3203 24.3807C17.7952 23.8556 17.5002 23.1434 17.5002 22.4008C17.5002 21.7848 17.6794 19.4678 17.853 17.358C17.9398 16.2926 18.028 15.2622 18.0938 14.4992L18.1358 14.0008H17.5002C16.9432 14.0008 16.4091 13.7796 16.0153 13.3857C15.6214 12.9919 15.4002 12.4578 15.4002 11.9008V9.10081ZM19.5974 13.3624L19.568 13.7054L19.4882 14.6196C19.4224 15.3812 19.3342 16.4088 19.2474 17.4728C19.071 19.6246 18.9002 21.8576 18.9002 22.4008C18.9002 22.7721 19.0477 23.1282 19.3102 23.3908C19.5728 23.6533 19.9289 23.8008 20.3002 23.8008C20.6715 23.8008 21.0276 23.6533 21.2901 23.3908C21.5527 23.1282 21.7002 22.7721 21.7002 22.4008C21.7002 21.8576 21.5294 19.6246 21.353 17.4728C21.2491 16.2168 21.1423 14.9609 21.0324 13.7054L21.003 13.3638V13.3624L21.0002 13.3008V4.24981C19.8338 4.41816 18.7671 5.00126 17.9957 5.89222C17.2243 6.78318 16.7999 7.92231 16.8002 9.10081V11.9008C16.8002 12.0865 16.8739 12.2645 17.0052 12.3958C17.1365 12.5271 17.3145 12.6008 17.5002 12.6008H18.9002C18.9973 12.6008 19.0934 12.621 19.1822 12.6602C19.2711 12.6993 19.3509 12.7565 19.4164 12.8281C19.482 12.8998 19.532 12.9843 19.5631 13.0762C19.5943 13.1682 19.6059 13.2657 19.5974 13.3624Z" fill="white"/>
</svg>
