<svg width="20" height="20" viewBox="0 0 20 20" fill="none" xmlns="http://www.w3.org/2000/svg">
<path d="M7.50033 0.833008V2.49967H12.5003V0.833008H14.167V2.49967H17.5003C17.7213 2.49967 17.9333 2.58747 18.0896 2.74375C18.2459 2.90003 18.3337 3.11199 18.3337 3.33301V16.6663C18.3337 16.8874 18.2459 17.0993 18.0896 17.2556C17.9333 17.4119 17.7213 17.4997 17.5003 17.4997H2.50033C2.27931 17.4997 2.06735 17.4119 1.91107 17.2556C1.75479 17.0993 1.66699 16.8874 1.66699 16.6663V3.33301C1.66699 3.11199 1.75479 2.90003 1.91107 2.74375C2.06735 2.58747 2.27931 2.49967 2.50033 2.49967H5.83366V0.833008H7.50033ZM16.667 9.16634H3.33366V15.833H16.667V9.16634ZM5.83366 4.16634H3.33366V7.49967H16.667V4.16634H14.167V5.83301H12.5003V4.16634H7.50033V5.83301H5.83366V4.16634Z" fill="#044246"/>
</svg>
