<svg width="16" height="16" viewBox="0 0 16 16" fill="none" xmlns="http://www.w3.org/2000/svg">
<path d="M4.66732 6.00065C5.10934 6.00065 5.53327 5.82506 5.84583 5.5125C6.15839 5.19993 6.33398 4.77601 6.33398 4.33398C6.33398 3.89196 6.15839 3.46803 5.84583 3.15547C5.53327 2.84291 5.10934 2.66732 4.66732 2.66732C4.22529 2.66732 3.80137 2.84291 3.48881 3.15547C3.17625 3.46803 3.00065 3.89196 3.00065 4.33398C3.00065 4.77601 3.17625 5.19993 3.48881 5.5125C3.80137 5.82506 4.22529 6.00065 4.66732 6.00065ZM4.66732 7.33398C4.27335 7.33398 3.88324 7.25639 3.51927 7.10562C3.15529 6.95486 2.82457 6.73388 2.546 6.4553C2.26742 6.17673 2.04644 5.84601 1.89568 5.48203C1.74491 5.11806 1.66732 4.72795 1.66732 4.33398C1.66732 3.94002 1.74491 3.54991 1.89568 3.18593C2.04644 2.82196 2.26742 2.49124 2.546 2.21266C2.82457 1.93409 3.15529 1.71311 3.51927 1.56235C3.88324 1.41158 4.27335 1.33398 4.66732 1.33398C5.46297 1.33398 6.22603 1.65005 6.78864 2.21266C7.35125 2.77527 7.66732 3.53833 7.66732 4.33398C7.66732 5.12963 7.35125 5.8927 6.78864 6.4553C6.22603 7.01791 5.46297 7.33398 4.66732 7.33398ZM11.6673 8.66732C12.0209 8.66732 12.3601 8.52684 12.6101 8.27679C12.8602 8.02674 13.0007 7.68761 13.0007 7.33398C13.0007 6.98036 12.8602 6.64122 12.6101 6.39118C12.3601 6.14113 12.0209 6.00065 11.6673 6.00065C11.3137 6.00065 10.9746 6.14113 10.7245 6.39118C10.4745 6.64122 10.334 6.98036 10.334 7.33398C10.334 7.68761 10.4745 8.02674 10.7245 8.27679C10.9746 8.52684 11.3137 8.66732 11.6673 8.66732ZM11.6673 10.0007C10.9601 10.0007 10.2818 9.7197 9.7817 9.2196C9.2816 8.71951 9.00065 8.04123 9.00065 7.33398C9.00065 6.62674 9.2816 5.94846 9.7817 5.44837C10.2818 4.94827 10.9601 4.66732 11.6673 4.66732C12.3746 4.66732 13.0528 4.94827 13.5529 5.44837C14.053 5.94846 14.334 6.62674 14.334 7.33398C14.334 8.04123 14.053 8.71951 13.5529 9.2196C13.0528 9.7197 12.3746 10.0007 11.6673 10.0007ZM13.334 14.0007V13.6673C13.334 13.2253 13.1584 12.8014 12.8458 12.4888C12.5333 12.1762 12.1093 12.0007 11.6673 12.0007C11.2253 12.0007 10.8014 12.1762 10.4888 12.4888C10.1762 12.8014 10.0007 13.2253 10.0007 13.6673V14.0007H8.66732V13.6673C8.66732 13.2734 8.74491 12.8832 8.89568 12.5193C9.04644 12.1553 9.26742 11.8246 9.546 11.546C9.82457 11.2674 10.1553 11.0464 10.5193 10.8957C10.8832 10.7449 11.2734 10.6673 11.6673 10.6673C12.0613 10.6673 12.4514 10.7449 12.8154 10.8957C13.1793 11.0464 13.5101 11.2674 13.7886 11.546C14.0672 11.8246 14.2882 12.1553 14.439 12.5193C14.5897 12.8832 14.6673 13.2734 14.6673 13.6673V14.0007H13.334ZM6.66732 14.0007V11.334C6.66732 11.0713 6.61559 10.8113 6.51508 10.5686C6.41457 10.326 6.26725 10.1055 6.08153 9.91977C5.89581 9.73405 5.67534 9.58673 5.43268 9.48622C5.19003 9.38572 4.92996 9.33398 4.66732 9.33398C4.40467 9.33398 4.1446 9.38572 3.90195 9.48622C3.6593 9.58673 3.43882 9.73405 3.2531 9.91977C3.06739 10.1055 2.92007 10.326 2.81956 10.5686C2.71905 10.8113 2.66732 11.0713 2.66732 11.334V14.0007H1.33398V11.334C1.33398 10.4499 1.68517 9.60208 2.3103 8.97696C2.93542 8.35184 3.78326 8.00065 4.66732 8.00065C5.55137 8.00065 6.39922 8.35184 7.02434 8.97696C7.64946 9.60208 8.00065 10.4499 8.00065 11.334V14.0007H6.66732Z" fill="#005A4F"/>
</svg>
