<svg width="28" height="28" viewBox="0 0 28 28" fill="none" xmlns="http://www.w3.org/2000/svg">
<path d="M10.5668 9.58721C8.11678 12.0395 1.74095 22.3354 3.70212 24.2977C5.66445 26.2577 15.9603 19.8842 18.4126 17.433C20.8626 14.9807 22.335 13.5107 18.4126 9.58721C14.4903 5.66371 13.0191 7.13721 10.5668 9.58721Z" stroke="white" stroke-width="1.5"/>
<path d="M17.917 17.084L16.167 15.334M9.16699 11.834L10.917 13.584M11.5003 21.1673L10.3337 20.0007M18.5003 1.33398C19.1047 1.93948 19.4978 3.23915 18.5003 4.96348M26.667 9.50065C26.0627 8.89515 24.7618 8.50198 23.0387 9.50065M23.4913 4.50965L21.2233 6.77765" stroke="white" stroke-width="1.5" stroke-linecap="round" stroke-linejoin="round"/>
</svg>
